<svg width="658" height="547" viewBox="0 0 658 547" fill="none" xmlns="http://www.w3.org/2000/svg">
<path d="M571.431 2.58085C572.664 0.747851 575.197 0.186457 577.089 1.32695L650.014 45.2866C651.906 46.4271 652.44 48.8375 651.207 50.6705L334.64 521.267C333.407 523.1 330.874 523.661 328.982 522.521L256.057 478.561C254.165 477.421 253.631 475.01 254.864 473.177L571.431 2.58085Z" fill="#052A45"/>
<rect width="92.9073" height="364.997" rx="4" transform="matrix(0.818738 -0.574168 0.615725 0.787961 81.0842 253.977)" fill="#052A45"/>
<rect width="92.6559" height="316.23" rx="4" transform="matrix(-0.798905 -0.601457 0.643079 -0.7658 154.024 319.193)" fill="#052A45"/>
<ellipse cx="85.0663" cy="103.739" rx="84.3507" ry="79.0936" transform="rotate(-0.510544 85.0663 103.739)" fill="#0080CF"/>
<path d="M114.235 22.4003L113.814 22.1296L113.519 22.5328L73.1459 77.6145C68.0853 84.5189 69.8175 93.8729 77.0149 98.5073L95.6173 110.485C102.815 115.119 112.752 113.279 117.813 106.375L158.185 51.2932L158.481 50.8899L158.06 50.6192L114.235 22.4003Z" fill="#052A45" stroke="#13D1FC"/>
<ellipse cx="104.29" cy="83.794" rx="7.59156" ry="7.11842" transform="rotate(-0.510544 104.29 83.794)" fill="#00EEFF"/>
</svg>
